<?xml version="1.0" encoding="utf-8"?>
<!-- Generator: Adobe Illustrator 19.1.0, SVG Export Plug-In . SVG Version: 6.00 Build 0)  -->
<svg version="1.1" id="Capa_1" xmlns="http://www.w3.org/2000/svg" xmlns:xlink="http://www.w3.org/1999/xlink" x="0px" y="0px"
	 viewBox="-89 181.3 431.7 431.7" style="enable-background:new -89 181.3 431.7 431.7;" xml:space="preserve">
<style type="text/css">
	.st0{fill:#E4ECEF;}
	.st1{fill:#E2CE93;}
</style>
<g>
	<g>
		<path class="st0" d="M232.4,446c-4.9-17-16.2-31.1-30.6-38.7c-3,1.2-6.1,2.3-9.3,3.3c-14.4,4.4-31,6.8-48.6,6.8
			c-7.9,0-15.9-0.5-24-1.4c-5.5-0.6-9.4-5.6-8.8-11.1c0.2-1.8,0.9-3.4,1.9-4.8c2.1-2.8,5.5-4.4,9.2-4c23,2.7,45.6,1,63.6-4.4
			c1.2-0.4,2.3-0.7,3.5-1.1c1.6-1.3,3-2.5,3.7-3.3c9.5-10.2,11-25.2,10.4-41.2c-0.6-17.4-10.8-29.5-23.6-37.2
			c-4.1,0.4-8.4,0.5-12.8,0.5c-3.5,0-7-0.1-10.6-0.3c-5.5-0.3-9.7-5.1-9.4-10.6c0.1-2,0.9-3.9,2-5.4c2-2.6,5.1-4.2,8.6-4
			c4.5,0.3,8.9,0.3,13.1,0.2c0.5,0,1.1-0.1,1.9-0.1c0.3-11.1-4.1-22.9-12.6-33.1c-8.5-10.2-19.8-16.8-34.5-20.3
			c-15.4-3.7-28.4-13-36.7-25.8c-5.3,4.5-9.6,10.3-12.6,17c-5.4,12.2-5.4,25.2,0.2,35.2c13.4,9.6,31.4,17.5,51,22.3
			c5.4,1.3,8.7,6.7,7.4,12.1c-1.1,4.6-5.2,7.6-9.7,7.6c-0.8,0-1.6-0.1-2.4-0.3c-0.1,0-0.1,0-0.2,0c-20.3-5-39.3-13-54.2-23
			c-2.7,1.7-5.2,3.7-7.6,5.8c-9.3,8.5-15.9,20.2-18.5,33.5c-3.6,18.5,1.4,36.8,13.3,48.8c7.1,7.2,17.4,13.5,29.9,18.2
			c5.2,2,7.8,7.7,5.8,12.9c-1.5,4-5.3,6.5-9.4,6.5c-0.8,0-1.7-0.1-2.5-0.3c-0.3-0.1-0.7-0.2-1-0.3c-12.5-4.7-23.1-10.7-31.5-17.8
			c-3.1,1.5-6,3.3-8.9,5.3c-13.3,9.3-23.5,23.6-28.4,40.4c-6,20.4-3.1,41.2,7.6,56.6h29.1h0.3c5.5,0,10,4.5,10,10v43.4
			c0,0.6,0.1,1.1,0.2,1.6c0.3,0.6,0.7,1.4,1.1,2.2c1.1,1.3,2.8,2.2,4.6,2.2c3.3,0,6-2.7,6-6v-43.4c0-2.1,0.7-4.1,1.8-5.8l-0.2-0.4
			c1.8-2.3,4.6-3.8,7.8-3.8h0.5h150.1C235.5,477.8,237,461.8,232.4,446z"/>
		<path class="st1" d="M88.4,510.5v3.8v29.6c0,13.2-9.9,24.2-22.7,25.8c-0.7,0.1-1.4,0.1-2.2,0.2c-0.4,0.2-0.7,0.2-1,0
			c0,0,0,0-0.1,0c-14.3,0-26-11.7-26-26v-33.4H12.1c0,0,0,0,0,0c0,0,0,0,0,0H7.9l0.6,3.8L20.6,593h197.6l12.5-82.5L88.4,510.5
			L88.4,510.5z"/>
	</g>
	<path d="M267.5,490.5h-6.2c7.1-16.2,8.2-35.3,2.7-54c-6.1-20.8-19.5-38.3-37.1-48.8c8.6-13.9,11.7-31.5,8.3-49.2
		c-3.8-19.7-15.2-36.7-31.1-46.9c2.3-17.6-3.8-36.6-16.9-52.2c-11.3-13.4-26.6-22.4-45.5-26.9c-19.2-4.5-26.5-18.9-28.8-24.8
		c0-0.1-0.1-0.2-0.1-0.3c-0.1-0.2-0.2-0.4-0.3-0.6c-0.1-0.1-0.1-0.2-0.2-0.4c-0.1-0.2-0.2-0.3-0.3-0.5c-0.1-0.1-0.2-0.3-0.3-0.4
		c-0.1-0.1-0.2-0.3-0.3-0.4c-0.1-0.1-0.2-0.3-0.3-0.4c-0.1-0.1-0.2-0.2-0.3-0.3c-0.1-0.1-0.3-0.3-0.4-0.4c-0.1-0.1-0.2-0.2-0.3-0.3
		c-0.1-0.1-0.3-0.2-0.4-0.4c-0.1-0.1-0.2-0.2-0.3-0.2c-0.1-0.1-0.3-0.2-0.4-0.3c-0.1-0.1-0.2-0.2-0.4-0.2c-0.1-0.1-0.3-0.1-0.4-0.2
		c-0.1-0.1-0.3-0.2-0.4-0.2c-0.1-0.1-0.3-0.1-0.4-0.2c-0.2-0.1-0.3-0.1-0.5-0.2c-0.1,0-0.2-0.1-0.4-0.1c-0.2-0.1-0.4-0.1-0.6-0.2
		c-0.1,0-0.2,0-0.4-0.1c-0.2,0-0.4-0.1-0.6-0.1c-0.1,0-0.3,0-0.4,0c-0.2,0-0.4,0-0.6,0c-0.2,0-0.3,0-0.5,0c-0.2,0-0.3,0-0.5,0
		c-0.2,0-0.4,0-0.6,0.1c-0.1,0-0.3,0-0.4,0c-0.2,0-0.4,0.1-0.6,0.1c-0.1,0-0.2,0-0.3,0.1c0,0,0,0,0,0c0,0-0.1,0-0.1,0
		c-18.6,4.8-34.7,18.8-43,37.3c-6.9,15.4-7.6,32-2.2,46.2c-17,11.4-29.2,29.9-33.3,51.3c-3.9,20.3,0,40.6,10.4,56.4
		c-20.2,11.6-35.8,31.6-42.7,55.4c-6.3,21.6-4.8,43.7,3.9,62.2h-7.8c-5.5,0-10,4.5-10,10s4.5,10,10,10h1.4l14.4,94
		C2.8,609.4,7,613,12,613h229.8c4.9,0,9.1-3.6,9.9-8.5l14.4-94h1.4c5.5,0,10-4.5,10-10C277.5,495,273,490.5,267.5,490.5z M233.2,593
		h-10.1h-4.9H20.6L8.5,514.3l-0.6-3.8h4.2c0,0,0,0,0,0c0,0,0,0,0,0h24.4v33.4c0,14.3,11.7,26,26,26c0,0,0,0,0.1,0c0.4,0,0.7,0,1,0
		c0.7,0,1.4-0.1,2.2-0.2c12.8-1.6,22.7-12.6,22.7-25.8v-29.6v-3.8h142.3h12.8c0,0,0,0,0,0c0,0,0,0,0,0h2.3L233.2,593z M238.5,490.5
		h-8.3h-1.6H78.4c-3.2,0-6,1.5-7.9,3.8c-0.1,0.1-0.2,0.3-0.3,0.4c-1.2,1.6-1.8,3.6-1.8,5.8v43.4c0,3.3-2.7,6-6,6
		c-1.9,0-3.5-0.9-4.6-2.2c0,0,0,0,0,0c-0.5-0.6-0.9-1.4-1.1-2.2c-0.1-0.5-0.2-1-0.2-1.6v-43.4c0-5.5-4.5-10-10-10h-0.3H17
		c-10.7-15.4-13.6-36.2-7.6-56.6c4.9-16.8,15.1-31,28.4-40.4c2.8-2,5.8-3.8,8.9-5.3c8.5,7.1,19,13,31.5,17.8c0.3,0.1,0.7,0.2,1,0.3
		c0.8,0.2,1.7,0.3,2.5,0.3c4,0,7.8-2.5,9.4-6.5c2-5.2-0.6-10.9-5.8-12.9c-12.5-4.7-22.8-11-29.9-18.2
		c-11.9-12.1-16.8-30.3-13.3-48.8c2.6-13.3,9.2-25.1,18.5-33.5c2.4-2.2,4.9-4.1,7.6-5.8c14.9,10,33.9,18.1,54.2,23
		c0.1,0,0.1,0,0.2,0c0.8,0.2,1.6,0.3,2.4,0.3c4.5,0,8.6-3.1,9.7-7.6c1.3-5.4-2-10.8-7.4-12.1c-19.6-4.8-37.6-12.6-51-22.3
		c-5.5-10-5.6-23-0.2-35.2c3-6.7,7.3-12.5,12.6-17c0.1-0.1,0.2-0.2,0.4-0.3c2.9-2.4,6-4.5,9.3-6.1c8.2,14.1,22.1,24.4,38.6,28.3
		c14.9,3.5,26.2,10.2,34.8,20.3c9.3,11,13.7,24.1,12.5,36c-3.4,0.5-6.9,0.8-10.5,1c-1,0.1-2.1,0.1-3.1,0.1c-4.2,0.1-8.6,0-13.1-0.2
		c-3.5-0.2-6.6,1.4-8.6,4c-1.1,1.5-1.9,3.4-2,5.4c-0.3,5.5,3.9,10.3,9.4,10.6c3.6,0.2,7.2,0.3,10.6,0.3c4.4,0,8.7-0.2,12.8-0.5
		c4-0.3,7.9-0.9,11.7-1.5c12.3,7,21.2,19.8,24,34.9c3,15.7-0.9,30.9-10.4,41.2c-4.6,2.8-9.9,5.1-15.8,7.1c-1.1,0.4-2.3,0.8-3.5,1.1
		c-18,5.4-40.7,7-63.6,4.4c-3.7-0.4-7.1,1.2-9.2,4c-1,1.4-1.7,3-1.9,4.8c-0.6,5.5,3.3,10.5,8.8,11.1c8.1,1,16.2,1.4,24,1.4
		c17.6,0,34.2-2.3,48.6-6.8c3.2-1,6.3-2.1,9.3-3.3c0.3-0.1,0.6-0.2,0.9-0.3c3.3-1.4,6.5-2.8,9.5-4.5c15.4,7.4,27.4,21.9,32.6,39.7
		C249.9,459.6,247.5,477.3,238.5,490.5z"/>
</g>
</svg>
