<?xml version="1.0" encoding="iso-8859-1"?>
<!-- Generator: Adobe Illustrator 19.1.0, SVG Export Plug-In . SVG Version: 6.00 Build 0)  -->
<svg version="1.1" id="Capa_1" xmlns="http://www.w3.org/2000/svg" xmlns:xlink="http://www.w3.org/1999/xlink" x="0px" y="0px"
	 viewBox="0 0 431.721 431.721" style="enable-background:new 0 0 431.721 431.721;" xml:space="preserve">
<g>
	<g>
		<path style="fill:#EF849D;" d="M321.428,264.693c-4.942-17.025-16.174-31.052-30.597-38.716c-2.976,1.196-6.06,2.302-9.272,3.291
			c-14.41,4.436-31.04,6.779-48.61,6.779c-7.872,0-15.926-0.467-24.048-1.42c-5.485-0.644-9.41-5.612-8.767-11.097
			c0.21-1.789,0.886-3.408,1.886-4.761c2.064-2.797,5.522-4.444,9.211-4.005c22.954,2.692,45.604,1.013,63.641-4.352
			c1.182-0.352,2.337-0.725,3.479-1.108c1.634-1.299,2.992-2.47,3.725-3.267c9.477-10.22,10.95-25.239,10.354-41.162
			c-0.65-17.39-10.791-29.482-23.605-37.189c-4.142,0.354-8.41,0.534-12.793,0.534c-3.475,0-7.019-0.111-10.63-0.335
			c-5.512-0.341-9.704-5.085-9.364-10.598c0.126-2.04,0.856-3.898,2.003-5.413c1.951-2.579,5.113-4.164,8.596-3.951
			c4.518,0.28,8.89,0.347,13.119,0.231c0.54-0.037,1.146-0.074,1.865-0.111c0.332-11.082-4.068-22.944-12.56-33.109
			c-8.485-10.157-19.778-16.804-34.523-20.32c-15.356-3.661-28.39-12.984-36.699-25.765c-5.252,4.526-9.621,10.318-12.599,16.997
			c-5.445,12.21-5.357,25.21,0.152,35.17c13.38,9.638,31.391,17.518,50.971,22.274c5.367,1.303,8.661,6.711,7.357,12.078
			c-1.111,4.574-5.203,7.642-9.71,7.642c-0.781,0-1.575-0.092-2.368-0.285c-0.062-0.015-0.123-0.032-0.185-0.047
			c-20.331-4.959-39.317-13.042-54.248-23.016c-2.704,1.697-5.245,3.654-7.62,5.817c-9.291,8.459-15.907,20.232-18.465,33.527
			c-3.562,18.507,1.401,36.762,13.276,48.832c7.06,7.175,17.401,13.474,29.907,18.214c5.165,1.957,7.765,7.73,5.807,12.895
			c-1.515,3.997-5.316,6.458-9.353,6.458c-0.842,0-1.695-0.113-2.539-0.335c-0.336-0.089-0.671-0.191-1.003-0.317
			c-12.503-4.739-23.075-10.706-31.533-17.785c-3.087,1.514-6.047,3.288-8.876,5.271c-13.321,9.343-23.544,23.623-28.448,40.39
			c-5.969,20.411-3.082,41.197,7.648,56.572h29.12h0.295c5.522,0,10,4.477,10,10v43.44c0,0.555,0.096,1.085,0.238,1.595
			c0.293,0.615,0.678,1.364,1.125,2.201c1.101,1.342,2.768,2.204,4.637,2.204c3.309,0,6-2.691,6-6v-43.44
			c0-2.149,0.69-4.13,1.844-5.759l-0.187-0.395c1.817-2.338,4.638-3.846,7.814-3.846h0.529h150.112
			C324.488,296.503,326.013,280.486,321.428,264.693z"/>
		<path style="fill:#E2CE93;" d="M177.424,329.202v3.846v29.594c0,13.234-9.941,24.183-22.747,25.789
			c-0.71,0.089-1.43,0.141-2.155,0.174c-0.404,0.188-0.746,0.184-1.046,0.035c-0.017,0-0.034,0.002-0.051,0.002
			c-14.337,0-26-11.664-26-26v-33.44h-24.351c-0.004,0-0.008,0-0.012,0c-0.003,0-0.006,0-0.009,0h-4.167l0.59,3.846l12.075,78.673
			h197.643l12.494-82.52H177.424z"/>
	</g>
	<path d="M356.488,309.202h-6.229c7.051-16.202,8.161-35.311,2.703-53.969c-6.083-20.801-19.543-38.3-37.055-48.8
		c8.601-13.944,11.688-31.505,8.286-49.185c-3.792-19.699-15.218-36.722-31.124-46.858c2.252-17.609-3.78-36.586-16.903-52.181
		c-11.256-13.374-26.555-22.426-45.475-26.904c-19.199-4.544-26.504-18.889-28.753-24.846c-0.041-0.109-0.094-0.21-0.138-0.317
		c-0.081-0.196-0.161-0.393-0.253-0.581c-0.059-0.12-0.128-0.233-0.192-0.35c-0.094-0.174-0.186-0.349-0.29-0.516
		c-0.084-0.135-0.178-0.261-0.267-0.39c-0.095-0.137-0.186-0.278-0.288-0.41c-0.111-0.144-0.231-0.278-0.349-0.415
		c-0.092-0.107-0.18-0.218-0.277-0.321c-0.131-0.14-0.271-0.27-0.41-0.401c-0.095-0.09-0.186-0.184-0.284-0.27
		c-0.142-0.125-0.291-0.239-0.44-0.355c-0.105-0.083-0.208-0.169-0.316-0.247c-0.143-0.103-0.293-0.196-0.441-0.291
		c-0.123-0.079-0.244-0.162-0.371-0.236c-0.137-0.08-0.279-0.15-0.42-0.223c-0.146-0.076-0.29-0.155-0.439-0.224
		c-0.128-0.059-0.259-0.108-0.389-0.161c-0.169-0.069-0.337-0.141-0.509-0.201c-0.12-0.042-0.243-0.074-0.364-0.111
		c-0.186-0.057-0.372-0.116-0.563-0.163c-0.12-0.029-0.242-0.048-0.363-0.073c-0.194-0.04-0.387-0.081-0.584-0.109
		c-0.134-0.019-0.271-0.027-0.406-0.041c-0.185-0.019-0.368-0.041-0.555-0.049c-0.163-0.007-0.327-0.002-0.49-0.001
		c-0.161,0.001-0.321-0.004-0.483,0.005c-0.196,0.01-0.393,0.036-0.59,0.058c-0.132,0.015-0.263,0.023-0.395,0.043
		c-0.215,0.033-0.429,0.083-0.644,0.13c-0.106,0.024-0.212,0.037-0.318,0.064c-0.014,0.004-0.029,0.009-0.043,0.012
		c-0.047,0.012-0.094,0.028-0.141,0.041c-18.62,4.815-34.669,18.76-42.955,37.345c-6.877,15.422-7.564,32.031-2.22,46.194
		c-16.984,11.397-29.154,29.948-33.269,51.331c-3.907,20.298-0.027,40.559,10.422,56.432C101.69,203.3,86.122,223.23,79.166,247.015
		c-6.313,21.587-4.772,43.704,3.854,62.186h-7.787c-5.522,0-10,4.477-10,10c0,5.523,4.478,10,10,10h1.418l14.433,94.037
		c0.748,4.88,4.946,8.483,9.884,8.483h229.783c4.938,0,9.136-3.603,9.884-8.483l14.433-94.037h1.418c5.522,0,10-4.477,10-10
		C366.488,313.679,362.01,309.202,356.488,309.202z M322.17,411.721h-10.076h-4.9H109.551l-12.075-78.673l-0.59-3.846h4.167
		c0.003,0,0.006,0,0.009,0c0.004,0,0.008,0,0.012,0h24.351v33.44c0,14.336,11.663,26,26,26c0.017,0,0.034-0.002,0.051-0.002
		c0.352-0.001,0.699-0.02,1.046-0.035c0.725-0.033,1.446-0.085,2.155-0.174c12.806-1.607,22.747-12.555,22.747-25.789v-29.594
		v-3.846h142.263h12.824c0.004,0,0.008,0,0.012,0c0.003,0,0.006,0,0.009,0h2.304L322.17,411.721z M327.515,309.202h-8.335h-1.643
		H167.424c-3.199,0-6.041,1.508-7.871,3.846c-0.1,0.128-0.191,0.262-0.284,0.395c-1.155,1.629-1.844,3.61-1.844,5.759v43.44
		c0,3.309-2.691,6-6,6c-1.868,0-3.536-0.861-4.637-2.204c-0.01-0.011-0.02-0.022-0.03-0.033c-0.508-0.629-0.872-1.369-1.095-2.168
		c-0.142-0.51-0.238-1.04-0.238-1.595v-43.44c0-5.523-4.478-10-10-10h-0.295h-29.12c-10.73-15.375-13.617-36.161-7.648-56.572
		c4.904-16.767,15.126-31.047,28.448-40.39c2.828-1.984,5.788-3.758,8.876-5.271c8.458,7.079,19.03,13.046,31.533,17.785
		c0.332,0.126,0.667,0.228,1.003,0.317c0.844,0.223,1.696,0.335,2.539,0.335c4.036,0,7.838-2.462,9.353-6.458
		c1.958-5.165-0.642-10.938-5.807-12.895c-12.506-4.74-22.848-11.038-29.907-18.214c-11.875-12.069-16.839-30.324-13.276-48.832
		c2.558-13.295,9.174-25.068,18.465-33.527c2.375-2.162,4.916-4.119,7.62-5.817c14.931,9.974,33.918,18.057,54.248,23.016
		c0.062,0.015,0.123,0.032,0.185,0.047c0.793,0.193,1.587,0.285,2.368,0.285c4.507,0,8.599-3.068,9.71-7.642
		c1.304-5.367-1.99-10.774-7.357-12.078c-19.58-4.756-37.591-12.636-50.971-22.274c-5.51-9.96-5.598-22.96-0.152-35.17
		c2.978-6.679,7.347-12.471,12.599-16.997c0.128-0.111,0.25-0.23,0.38-0.339c2.867-2.417,5.987-4.464,9.297-6.057
		c8.241,14.095,22.086,24.413,38.572,28.315c14.854,3.516,26.23,10.163,34.778,20.32c9.296,11.045,13.739,24.096,12.471,35.971
		c-3.367,0.479-6.871,0.801-10.485,0.984c-1.02,0.052-2.056,0.082-3.095,0.111c-4.229,0.116-8.6,0.049-13.119-0.231
		c-3.483-0.213-6.645,1.372-8.596,3.951c-1.147,1.516-1.876,3.373-2.003,5.413c-0.34,5.512,3.852,10.257,9.364,10.598
		c3.611,0.223,7.155,0.335,10.63,0.335c4.383,0,8.651-0.18,12.793-0.534c4.016-0.344,7.915-0.851,11.682-1.525
		c12.253,7.002,21.151,19.813,24.048,34.868c3.013,15.651-0.884,30.942-10.431,41.162c-4.588,2.77-9.908,5.145-15.773,7.114
		c-1.142,0.383-2.296,0.756-3.479,1.108c-18.037,5.366-40.687,7.044-63.641,4.352c-3.688-0.439-7.147,1.208-9.211,4.005
		c-0.999,1.354-1.676,2.972-1.886,4.761c-0.644,5.485,3.281,10.454,8.767,11.097c8.122,0.953,16.176,1.42,24.048,1.42
		c17.57,0,34.2-2.343,48.61-6.779c3.213-0.989,6.296-2.096,9.272-3.291c0.279-0.112,0.573-0.212,0.85-0.326
		c3.318-1.365,6.491-2.848,9.469-4.467c15.399,7.426,27.434,21.938,32.617,39.663C338.864,278.275,336.489,295.991,327.515,309.202z
		"/>
</g>
<g>
</g>
<g>
</g>
<g>
</g>
<g>
</g>
<g>
</g>
<g>
</g>
<g>
</g>
<g>
</g>
<g>
</g>
<g>
</g>
<g>
</g>
<g>
</g>
<g>
</g>
<g>
</g>
<g>
</g>
</svg>
